<svg width="1201" height="247" viewBox="0 0 1201 247" fill="none" xmlns="http://www.w3.org/2000/svg">
<path d="M629.05 122.787C629.05 102.815 636.221 85.827 650.321 72.2557C664.422 58.6843 681.699 51.7542 702.201 51.7542C722.702 51.7542 739.979 58.6843 754.08 72.2557C768.181 85.827 775.351 102.815 775.351 122.787C775.351 142.759 768.181 159.748 754.08 173.319C739.979 186.891 722.702 193.82 702.201 193.82C681.699 193.82 664.422 186.891 650.321 173.319C636.221 159.748 629.05 142.759 629.05 122.787ZM731.701 152.818C739.69 144.588 743.685 134.723 743.685 122.787C743.685 110.852 739.69 100.987 731.701 92.9977C723.713 84.7683 713.895 80.7737 702.153 80.7737C690.41 80.7737 680.352 84.7683 672.363 92.9977C664.663 100.987 660.668 110.804 660.668 122.787C660.668 134.771 664.663 144.588 672.363 152.818C680.352 160.806 690.169 164.801 702.153 164.801C714.136 164.801 723.713 160.806 731.701 152.818Z" fill="white"/>
<path d="M893.687 74.0347C893.772 74.2436 894.104 74.1841 894.104 73.9587V4.89844C894.104 4.62229 894.328 4.39844 894.604 4.39844H925.511C925.788 4.39844 926.011 4.6223 926.011 4.89844V184.628C926.011 187.468 923.701 189.778 920.862 189.778H899.254C896.414 189.778 894.104 187.468 894.104 184.628V171.273C894.104 171.104 893.858 171.061 893.797 171.218C888.881 183.82 872.888 192.713 851.272 192.713C832.407 192.713 816.43 186.072 803.388 172.741C790.635 159.17 784.234 142.711 784.234 122.739C784.234 102.767 790.49 86.6932 802.955 73.4587C815.419 60.2242 831.637 53.2458 849.348 52.8127C871.76 52.2512 888.486 61.1976 893.687 74.0347ZM884.527 151.999C892.516 144.299 896.51 134.434 896.51 122.739C896.51 111.045 892.516 101.179 884.527 93.4788C876.827 85.7787 866.961 81.7843 855.556 81.7843C844.15 81.7843 834.814 85.7787 827.114 93.4788C819.654 101.179 815.948 111.045 815.948 122.739C815.948 134.434 819.654 144.299 827.114 151.999C834.814 159.699 844.15 163.694 855.556 163.694C866.961 163.694 876.827 159.699 884.527 151.999Z" fill="white"/>
<path d="M1071.3 55.7466C1071.65 55.7471 1071.89 56.0994 1071.76 56.4267L1011.87 211.578C1007.87 221.973 1003.11 229.962 997.573 235.545C989.584 242.956 978.949 246.662 965.377 246.662H950.088C949.867 246.662 949.688 246.483 949.688 246.262V219.197C949.688 218.976 949.867 218.797 950.088 218.797H964.559C969.612 218.797 973.318 217.738 976.254 215.861C979.189 213.984 981.884 209.99 983.954 204.407C986.167 198.247 986.023 191.462 983.569 185.35L931.533 56.3869C931.401 56.0583 931.643 55.6998 931.997 55.6998H963.11C963.316 55.6998 963.501 55.8263 963.576 56.0183L1002.82 156.763L1038.97 58.036C1039.49 56.6329 1040.82 55.6998 1042.32 55.6998V55.6998L1059.95 55.7298L1063.97 55.7357L1071.3 55.7466Z" fill="white"/>
<path d="M1098.59 184.628V84.7196H1080.82H1077C1076.72 84.7196 1076.5 84.4957 1076.5 84.2196V56.2479C1076.5 55.9718 1076.72 55.7479 1077 55.7479H1098.59V49.1069C1098.59 28.6054 1102.82 17.4401 1113.22 9.74C1121.45 3.62806 1134.25 0.692383 1151.53 0.692383C1159.72 0.692383 1170.43 0.692386 1172.83 0.692387C1173.11 0.692387 1173.33 0.916245 1173.33 1.19239V27.3352C1173.33 27.6114 1173.1 27.8352 1172.83 27.8352C1167.63 27.8352 1155.52 27.8352 1155.52 27.8352C1137.19 27.8352 1129.2 33.1774 1129.2 46.7006V55.7479H1195.85C1198.69 55.7479 1201 58.058 1201 60.8974V184.628C1201 187.468 1198.69 189.778 1195.85 189.778H1174.48C1171.64 189.778 1169.33 187.468 1169.33 184.628V84.7196H1129.44V184.628C1129.44 187.468 1127.13 189.778 1124.29 189.778H1103.74C1100.9 189.778 1098.59 187.468 1098.59 184.628Z" fill="white"/>
<path d="M618.201 110.996V184.146C618.201 187.275 615.65 189.825 612.522 189.825H591.25C588.652 189.825 586.486 187.708 586.486 185.061V112.006C586.486 99.9265 578.353 88.7133 566.418 86.4514C550.392 83.3233 536.291 95.4992 536.291 110.996V184.146C536.291 187.275 533.74 189.825 530.612 189.825H509.341C506.742 189.825 504.576 187.708 504.576 185.061V113.017C504.576 97.4241 510.64 82.8902 520.698 72.0619C529.217 62.8219 540.767 56.3249 553.953 54.6405C588.604 50.2611 618.201 77.1634 618.201 110.996V110.996Z" fill="white"/>
<path d="M536.291 110.996V184.146C536.291 187.274 533.74 189.825 530.612 189.825H509.341C506.742 189.825 504.576 187.708 504.576 185.061V112.006C504.576 99.8303 496.443 88.7133 484.508 86.4514C468.482 83.3232 454.478 95.4992 454.478 110.996V184.146C454.478 187.274 451.927 189.825 448.799 189.825H427.528C424.929 189.825 422.763 187.708 422.763 185.061V113.017C422.763 84.1415 443.361 58.3943 472.044 54.6405C491.198 52.1861 508.86 59.4049 520.698 72.0619C530.42 82.2164 536.291 95.9804 536.291 110.996V110.996Z" fill="white"/>
<path fill-rule="evenodd" clip-rule="evenodd" d="M279.039 214.021C293.477 213.781 306.904 207.861 316.818 197.37C336.26 176.724 335.202 143.132 314.508 122.438L259.404 67.335C238.758 46.6892 205.167 46.6892 184.473 67.2869C179.323 72.3882 179.323 80.7619 184.473 85.8632C189.622 91.0127 197.948 91.0127 203.049 85.8632C213.492 75.4681 230.433 75.4681 240.828 85.8632L295.931 140.967C306.663 151.699 307.433 168.88 297.664 179.275C292.659 184.568 285.921 187.552 278.654 187.697C271.387 187.648 264.553 185.05 259.404 179.9L146.694 67.2387C126.048 46.5929 92.4568 46.5929 71.811 67.2387L15.5041 123.546C5.30149 133.748 -0.233091 147.367 0.00753607 161.805C0.248163 176.243 6.1677 189.67 16.6591 199.584C37.2568 219.026 70.8965 217.968 91.5904 197.274L117.504 171.36C120.458 172.38 123.63 172.934 126.931 172.934C142.878 172.934 155.806 160.006 155.806 144.058C155.806 128.111 142.878 115.183 126.931 115.183C110.983 115.183 98.0553 128.111 98.0553 144.058C98.0553 146.968 98.4856 149.777 99.2861 152.425L73.0141 178.697C62.2821 189.429 45.1012 190.199 34.7061 180.43C29.4123 175.425 26.4285 168.687 26.2841 161.42C26.1879 154.153 28.931 147.32 34.0804 142.17L90.3873 85.8632C95.4405 80.8101 102.13 78.0669 109.252 78.0669C116.375 78.0669 123.064 80.8582 128.118 85.8632L240.828 198.525C250.838 208.535 264.12 214.021 278.269 214.021H279.039ZM126.931 153.684C132.247 153.684 136.556 149.375 136.556 144.059C136.556 138.743 132.247 134.434 126.931 134.434C121.616 134.434 117.306 138.743 117.306 144.059C117.306 149.375 121.616 153.684 126.931 153.684Z" fill="url(#paint0_linear_125_63)"/>
<defs>
<linearGradient id="paint0_linear_125_63" x1="46.9321" y1="149.208" x2="243.936" y2="149.208" gradientUnits="userSpaceOnUse">
<stop stop-color="#FE2B7C"/>
<stop offset="1" stop-color="#FB0BF1"/>
</linearGradient>
</defs>
</svg>
